<svg width="30" height="30" viewBox="0 0 30 30" fill="none" xmlns="http://www.w3.org/2000/svg">
    <path d="M15 30C23.2843 30 30 23.2843 30 15C30 6.71573 23.2843 0 15 0C6.71573 0 0 6.71573 0 15C0 23.2843 6.71573 30 15 30Z"
          fill="url(#paint0_linear_646:12103)"/>
    <path d="M21.5645 20.9767L16.4923 8.71381C16.2063 8.07979 15.781 7.77051 15.2204 7.77051H14.772C14.2114 7.77051 13.7862 8.07979 13.5001 8.71381L11.2926 14.0566H9.62249C9.12378 14.0605 8.71785 14.4625 8.71399 14.9651V14.9767C8.71785 15.4754 9.12378 15.8813 9.62249 15.8852H10.5194L8.41244 20.9767C8.37378 21.0888 8.35059 21.2048 8.35059 21.3246C8.35059 21.6107 8.4395 21.8349 8.59801 22.0089C8.75651 22.1829 8.98461 22.2679 9.27069 22.2679C9.46012 22.2641 9.64182 22.2061 9.7926 22.094C9.95497 21.9818 10.0671 21.8195 10.156 21.6339L12.4756 15.8813H14.0838C14.5825 15.8775 14.9885 15.4754 14.9923 14.9728V14.9496C14.9885 14.4509 14.5825 14.045 14.0838 14.0411H13.2256L14.9962 9.63004L19.8209 21.63C19.9099 21.8156 20.022 21.978 20.1843 22.0901C20.3351 22.2022 20.5207 22.2602 20.7063 22.2641C20.9923 22.2641 21.2166 22.179 21.3789 22.005C21.5413 21.8311 21.6264 21.6068 21.6264 21.3208C21.6302 21.2048 21.6109 21.0849 21.5645 20.9767Z"
          fill="white"/>
    <defs>
        <linearGradient id="paint0_linear_646:12103" x1="26.1838" y1="5.58968" x2="3.86378" y2="24.3697"
                        gradientUnits="userSpaceOnUse">
            <stop stop-color="#B6509E"/>
            <stop offset="1" stop-color="#2EBAC6"/>
        </linearGradient>
    </defs>
</svg>
